<?xml version="1.0" encoding="UTF-8"?>
<svg width="19px" height="19px" viewBox="0 0 19 19" version="1.1" xmlns="http://www.w3.org/2000/svg" xmlns:xlink="http://www.w3.org/1999/xlink">
    <!-- Generator: Sketch 52.5 (67469) - http://www.bohemiancoding.com/sketch -->
    <desc>Created with Sketch.</desc>
    <!-- 这边把 <g> 的内容拷了很多份，主要是为了确保结果会大于 8KB（否则会被 webpack 自动 inline） -->
    <g id="step-1-落地版" stroke="none" stroke-width="1" fill="none" fill-rule="evenodd">
        <g id="Group-2-Copy-2" transform="translate(1.000000, 1.000000)" stroke="#5B5B5B" stroke-width="2">
            <rect id="Combined-Shape-Copy-3" x="1" y="1" width="14" height="14" rx="1"></rect>
        </g>
        <rect id="Rectangle-Copy-8" stroke="#5B5B5B" fill="#D8D8D8" x="6.5" y="6.5" width="5" height="1" rx="0.5"></rect>
        <rect id="Rectangle-Copy-10" stroke="#5B5B5B" fill="#D8D8D8" x="6.5" y="10.5" width="5" height="1" rx="0.5"></rect>
    </g>
    <g id="step-1-落地版" stroke="none" stroke-width="1" fill="none" fill-rule="evenodd">
        <g id="Group-2-Copy-2" transform="translate(1.000000, 1.000000)" stroke="#5B5B5B" stroke-width="2">
            <rect id="Combined-Shape-Copy-3" x="1" y="1" width="14" height="14" rx="1"></rect>
        </g>
        <rect id="Rectangle-Copy-8" stroke="#5B5B5B" fill="#D8D8D8" x="6.5" y="6.5" width="5" height="1" rx="0.5"></rect>
        <rect id="Rectangle-Copy-10" stroke="#5B5B5B" fill="#D8D8D8" x="6.5" y="10.5" width="5" height="1" rx="0.5"></rect>
    </g>
    <g id="step-1-落地版" stroke="none" stroke-width="1" fill="none" fill-rule="evenodd">
        <g id="Group-2-Copy-2" transform="translate(1.000000, 1.000000)" stroke="#5B5B5B" stroke-width="2">
            <rect id="Combined-Shape-Copy-3" x="1" y="1" width="14" height="14" rx="1"></rect>
        </g>
        <rect id="Rectangle-Copy-8" stroke="#5B5B5B" fill="#D8D8D8" x="6.5" y="6.5" width="5" height="1" rx="0.5"></rect>
        <rect id="Rectangle-Copy-10" stroke="#5B5B5B" fill="#D8D8D8" x="6.5" y="10.5" width="5" height="1" rx="0.5"></rect>
    </g>
    <g id="step-1-落地版" stroke="none" stroke-width="1" fill="none" fill-rule="evenodd">
        <g id="Group-2-Copy-2" transform="translate(1.000000, 1.000000)" stroke="#5B5B5B" stroke-width="2">
            <rect id="Combined-Shape-Copy-3" x="1" y="1" width="14" height="14" rx="1"></rect>
        </g>
        <rect id="Rectangle-Copy-8" stroke="#5B5B5B" fill="#D8D8D8" x="6.5" y="6.5" width="5" height="1" rx="0.5"></rect>
        <rect id="Rectangle-Copy-10" stroke="#5B5B5B" fill="#D8D8D8" x="6.5" y="10.5" width="5" height="1" rx="0.5"></rect>
    </g>
    <g id="step-1-落地版" stroke="none" stroke-width="1" fill="none" fill-rule="evenodd">
        <g id="Group-2-Copy-2" transform="translate(1.000000, 1.000000)" stroke="#5B5B5B" stroke-width="2">
            <rect id="Combined-Shape-Copy-3" x="1" y="1" width="14" height="14" rx="1"></rect>
        </g>
        <rect id="Rectangle-Copy-8" stroke="#5B5B5B" fill="#D8D8D8" x="6.5" y="6.5" width="5" height="1" rx="0.5"></rect>
        <rect id="Rectangle-Copy-10" stroke="#5B5B5B" fill="#D8D8D8" x="6.5" y="10.5" width="5" height="1" rx="0.5"></rect>
    </g>
    <g id="step-1-落地版" stroke="none" stroke-width="1" fill="none" fill-rule="evenodd">
        <g id="Group-2-Copy-2" transform="translate(1.000000, 1.000000)" stroke="#5B5B5B" stroke-width="2">
            <rect id="Combined-Shape-Copy-3" x="1" y="1" width="14" height="14" rx="1"></rect>
        </g>
        <rect id="Rectangle-Copy-8" stroke="#5B5B5B" fill="#D8D8D8" x="6.5" y="6.5" width="5" height="1" rx="0.5"></rect>
        <rect id="Rectangle-Copy-10" stroke="#5B5B5B" fill="#D8D8D8" x="6.5" y="10.5" width="5" height="1" rx="0.5"></rect>
    </g>
    <g id="step-1-落地版" stroke="none" stroke-width="1" fill="none" fill-rule="evenodd">
        <g id="Group-2-Copy-2" transform="translate(1.000000, 1.000000)" stroke="#5B5B5B" stroke-width="2">
            <rect id="Combined-Shape-Copy-3" x="1" y="1" width="14" height="14" rx="1"></rect>
        </g>
        <rect id="Rectangle-Copy-8" stroke="#5B5B5B" fill="#D8D8D8" x="6.5" y="6.5" width="5" height="1" rx="0.5"></rect>
        <rect id="Rectangle-Copy-10" stroke="#5B5B5B" fill="#D8D8D8" x="6.5" y="10.5" width="5" height="1" rx="0.5"></rect>
    </g>
    <g id="step-1-落地版" stroke="none" stroke-width="1" fill="none" fill-rule="evenodd">
        <g id="Group-2-Copy-2" transform="translate(1.000000, 1.000000)" stroke="#5B5B5B" stroke-width="2">
            <rect id="Combined-Shape-Copy-3" x="1" y="1" width="14" height="14" rx="1"></rect>
        </g>
        <rect id="Rectangle-Copy-8" stroke="#5B5B5B" fill="#D8D8D8" x="6.5" y="6.5" width="5" height="1" rx="0.5"></rect>
        <rect id="Rectangle-Copy-10" stroke="#5B5B5B" fill="#D8D8D8" x="6.5" y="10.5" width="5" height="1" rx="0.5"></rect>
    </g>
    <g id="step-1-落地版" stroke="none" stroke-width="1" fill="none" fill-rule="evenodd">
        <g id="Group-2-Copy-2" transform="translate(1.000000, 1.000000)" stroke="#5B5B5B" stroke-width="2">
            <rect id="Combined-Shape-Copy-3" x="1" y="1" width="14" height="14" rx="1"></rect>
        </g>
        <rect id="Rectangle-Copy-8" stroke="#5B5B5B" fill="#D8D8D8" x="6.5" y="6.5" width="5" height="1" rx="0.5"></rect>
        <rect id="Rectangle-Copy-10" stroke="#5B5B5B" fill="#D8D8D8" x="6.5" y="10.5" width="5" height="1" rx="0.5"></rect>
    </g>
    <g id="step-1-落地版" stroke="none" stroke-width="1" fill="none" fill-rule="evenodd">
        <g id="Group-2-Copy-2" transform="translate(1.000000, 1.000000)" stroke="#5B5B5B" stroke-width="2">
            <rect id="Combined-Shape-Copy-3" x="1" y="1" width="14" height="14" rx="1"></rect>
        </g>
        <rect id="Rectangle-Copy-8" stroke="#5B5B5B" fill="#D8D8D8" x="6.5" y="6.5" width="5" height="1" rx="0.5"></rect>
        <rect id="Rectangle-Copy-10" stroke="#5B5B5B" fill="#D8D8D8" x="6.5" y="10.5" width="5" height="1" rx="0.5"></rect>
    </g>
    <g id="step-1-落地版" stroke="none" stroke-width="1" fill="none" fill-rule="evenodd">
        <g id="Group-2-Copy-2" transform="translate(1.000000, 1.000000)" stroke="#5B5B5B" stroke-width="2">
            <rect id="Combined-Shape-Copy-3" x="1" y="1" width="14" height="14" rx="1"></rect>
        </g>
        <rect id="Rectangle-Copy-8" stroke="#5B5B5B" fill="#D8D8D8" x="6.5" y="6.5" width="5" height="1" rx="0.5"></rect>
        <rect id="Rectangle-Copy-10" stroke="#5B5B5B" fill="#D8D8D8" x="6.5" y="10.5" width="5" height="1" rx="0.5"></rect>
    </g>
    <g id="step-1-落地版" stroke="none" stroke-width="1" fill="none" fill-rule="evenodd">
        <g id="Group-2-Copy-2" transform="translate(1.000000, 1.000000)" stroke="#5B5B5B" stroke-width="2">
            <rect id="Combined-Shape-Copy-3" x="1" y="1" width="14" height="14" rx="1"></rect>
        </g>
        <rect id="Rectangle-Copy-8" stroke="#5B5B5B" fill="#D8D8D8" x="6.5" y="6.5" width="5" height="1" rx="0.5"></rect>
        <rect id="Rectangle-Copy-10" stroke="#5B5B5B" fill="#D8D8D8" x="6.5" y="10.5" width="5" height="1" rx="0.5"></rect>
    </g>
    <g id="step-1-落地版" stroke="none" stroke-width="1" fill="none" fill-rule="evenodd">
        <g id="Group-2-Copy-2" transform="translate(1.000000, 1.000000)" stroke="#5B5B5B" stroke-width="2">
            <rect id="Combined-Shape-Copy-3" x="1" y="1" width="14" height="14" rx="1"></rect>
        </g>
        <rect id="Rectangle-Copy-8" stroke="#5B5B5B" fill="#D8D8D8" x="6.5" y="6.5" width="5" height="1" rx="0.5"></rect>
        <rect id="Rectangle-Copy-10" stroke="#5B5B5B" fill="#D8D8D8" x="6.5" y="10.5" width="5" height="1" rx="0.5"></rect>
    </g>
    <g id="step-1-落地版" stroke="none" stroke-width="1" fill="none" fill-rule="evenodd">
        <g id="Group-2-Copy-2" transform="translate(1.000000, 1.000000)" stroke="#5B5B5B" stroke-width="2">
            <rect id="Combined-Shape-Copy-3" x="1" y="1" width="14" height="14" rx="1"></rect>
        </g>
        <rect id="Rectangle-Copy-8" stroke="#5B5B5B" fill="#D8D8D8" x="6.5" y="6.5" width="5" height="1" rx="0.5"></rect>
        <rect id="Rectangle-Copy-10" stroke="#5B5B5B" fill="#D8D8D8" x="6.5" y="10.5" width="5" height="1" rx="0.5"></rect>
    </g>
    <g id="step-1-落地版" stroke="none" stroke-width="1" fill="none" fill-rule="evenodd">
        <g id="Group-2-Copy-2" transform="translate(1.000000, 1.000000)" stroke="#5B5B5B" stroke-width="2">
            <rect id="Combined-Shape-Copy-3" x="1" y="1" width="14" height="14" rx="1"></rect>
        </g>
        <rect id="Rectangle-Copy-8" stroke="#5B5B5B" fill="#D8D8D8" x="6.5" y="6.5" width="5" height="1" rx="0.5"></rect>
        <rect id="Rectangle-Copy-10" stroke="#5B5B5B" fill="#D8D8D8" x="6.5" y="10.5" width="5" height="1" rx="0.5"></rect>
    </g>
    <g id="step-1-落地版" stroke="none" stroke-width="1" fill="none" fill-rule="evenodd">
        <g id="Group-2-Copy-2" transform="translate(1.000000, 1.000000)" stroke="#5B5B5B" stroke-width="2">
            <rect id="Combined-Shape-Copy-3" x="1" y="1" width="14" height="14" rx="1"></rect>
        </g>
        <rect id="Rectangle-Copy-8" stroke="#5B5B5B" fill="#D8D8D8" x="6.5" y="6.5" width="5" height="1" rx="0.5"></rect>
        <rect id="Rectangle-Copy-10" stroke="#5B5B5B" fill="#D8D8D8" x="6.5" y="10.5" width="5" height="1" rx="0.5"></rect>
    </g>
    <g id="step-1-落地版" stroke="none" stroke-width="1" fill="none" fill-rule="evenodd">
        <g id="Group-2-Copy-2" transform="translate(1.000000, 1.000000)" stroke="#5B5B5B" stroke-width="2">
            <rect id="Combined-Shape-Copy-3" x="1" y="1" width="14" height="14" rx="1"></rect>
        </g>
        <rect id="Rectangle-Copy-8" stroke="#5B5B5B" fill="#D8D8D8" x="6.5" y="6.5" width="5" height="1" rx="0.5"></rect>
        <rect id="Rectangle-Copy-10" stroke="#5B5B5B" fill="#D8D8D8" x="6.5" y="10.5" width="5" height="1" rx="0.5"></rect>
    </g>
    <g id="step-1-落地版" stroke="none" stroke-width="1" fill="none" fill-rule="evenodd">
        <g id="Group-2-Copy-2" transform="translate(1.000000, 1.000000)" stroke="#5B5B5B" stroke-width="2">
            <rect id="Combined-Shape-Copy-3" x="1" y="1" width="14" height="14" rx="1"></rect>
        </g>
        <rect id="Rectangle-Copy-8" stroke="#5B5B5B" fill="#D8D8D8" x="6.5" y="6.5" width="5" height="1" rx="0.5"></rect>
        <rect id="Rectangle-Copy-10" stroke="#5B5B5B" fill="#D8D8D8" x="6.5" y="10.5" width="5" height="1" rx="0.5"></rect>
    </g>
    <g id="step-1-落地版" stroke="none" stroke-width="1" fill="none" fill-rule="evenodd">
        <g id="Group-2-Copy-2" transform="translate(1.000000, 1.000000)" stroke="#5B5B5B" stroke-width="2">
            <rect id="Combined-Shape-Copy-3" x="1" y="1" width="14" height="14" rx="1"></rect>
        </g>
        <rect id="Rectangle-Copy-8" stroke="#5B5B5B" fill="#D8D8D8" x="6.5" y="6.5" width="5" height="1" rx="0.5"></rect>
        <rect id="Rectangle-Copy-10" stroke="#5B5B5B" fill="#D8D8D8" x="6.5" y="10.5" width="5" height="1" rx="0.5"></rect>
    </g>
    <g id="step-1-落地版" stroke="none" stroke-width="1" fill="none" fill-rule="evenodd">
        <g id="Group-2-Copy-2" transform="translate(1.000000, 1.000000)" stroke="#5B5B5B" stroke-width="2">
            <rect id="Combined-Shape-Copy-3" x="1" y="1" width="14" height="14" rx="1"></rect>
        </g>
        <rect id="Rectangle-Copy-8" stroke="#5B5B5B" fill="#D8D8D8" x="6.5" y="6.5" width="5" height="1" rx="0.5"></rect>
        <rect id="Rectangle-Copy-10" stroke="#5B5B5B" fill="#D8D8D8" x="6.5" y="10.5" width="5" height="1" rx="0.5"></rect>
    </g>
    <g id="step-1-落地版" stroke="none" stroke-width="1" fill="none" fill-rule="evenodd">
        <g id="Group-2-Copy-2" transform="translate(1.000000, 1.000000)" stroke="#5B5B5B" stroke-width="2">
            <rect id="Combined-Shape-Copy-3" x="1" y="1" width="14" height="14" rx="1"></rect>
        </g>
        <rect id="Rectangle-Copy-8" stroke="#5B5B5B" fill="#D8D8D8" x="6.5" y="6.5" width="5" height="1" rx="0.5"></rect>
        <rect id="Rectangle-Copy-10" stroke="#5B5B5B" fill="#D8D8D8" x="6.5" y="10.5" width="5" height="1" rx="0.5"></rect>
    </g>
    <g id="step-1-落地版" stroke="none" stroke-width="1" fill="none" fill-rule="evenodd">
        <g id="Group-2-Copy-2" transform="translate(1.000000, 1.000000)" stroke="#5B5B5B" stroke-width="2">
            <rect id="Combined-Shape-Copy-3" x="1" y="1" width="14" height="14" rx="1"></rect>
        </g>
        <rect id="Rectangle-Copy-8" stroke="#5B5B5B" fill="#D8D8D8" x="6.5" y="6.5" width="5" height="1" rx="0.5"></rect>
        <rect id="Rectangle-Copy-10" stroke="#5B5B5B" fill="#D8D8D8" x="6.5" y="10.5" width="5" height="1" rx="0.5"></rect>
    </g>
    <g id="step-1-落地版" stroke="none" stroke-width="1" fill="none" fill-rule="evenodd">
        <g id="Group-2-Copy-2" transform="translate(1.000000, 1.000000)" stroke="#5B5B5B" stroke-width="2">
            <rect id="Combined-Shape-Copy-3" x="1" y="1" width="14" height="14" rx="1"></rect>
        </g>
        <rect id="Rectangle-Copy-8" stroke="#5B5B5B" fill="#D8D8D8" x="6.5" y="6.5" width="5" height="1" rx="0.5"></rect>
        <rect id="Rectangle-Copy-10" stroke="#5B5B5B" fill="#D8D8D8" x="6.5" y="10.5" width="5" height="1" rx="0.5"></rect>
    </g>
    <g id="step-1-落地版" stroke="none" stroke-width="1" fill="none" fill-rule="evenodd">
        <g id="Group-2-Copy-2" transform="translate(1.000000, 1.000000)" stroke="#5B5B5B" stroke-width="2">
            <rect id="Combined-Shape-Copy-3" x="1" y="1" width="14" height="14" rx="1"></rect>
        </g>
        <rect id="Rectangle-Copy-8" stroke="#5B5B5B" fill="#D8D8D8" x="6.5" y="6.5" width="5" height="1" rx="0.5"></rect>
        <rect id="Rectangle-Copy-10" stroke="#5B5B5B" fill="#D8D8D8" x="6.5" y="10.5" width="5" height="1" rx="0.5"></rect>
    </g>
    <g id="step-1-落地版" stroke="none" stroke-width="1" fill="none" fill-rule="evenodd">
        <g id="Group-2-Copy-2" transform="translate(1.000000, 1.000000)" stroke="#5B5B5B" stroke-width="2">
            <rect id="Combined-Shape-Copy-3" x="1" y="1" width="14" height="14" rx="1"></rect>
        </g>
        <rect id="Rectangle-Copy-8" stroke="#5B5B5B" fill="#D8D8D8" x="6.5" y="6.5" width="5" height="1" rx="0.5"></rect>
        <rect id="Rectangle-Copy-10" stroke="#5B5B5B" fill="#D8D8D8" x="6.5" y="10.5" width="5" height="1" rx="0.5"></rect>
    </g>
    <g id="step-1-落地版" stroke="none" stroke-width="1" fill="none" fill-rule="evenodd">
        <g id="Group-2-Copy-2" transform="translate(1.000000, 1.000000)" stroke="#5B5B5B" stroke-width="2">
            <rect id="Combined-Shape-Copy-3" x="1" y="1" width="14" height="14" rx="1"></rect>
        </g>
        <rect id="Rectangle-Copy-8" stroke="#5B5B5B" fill="#D8D8D8" x="6.5" y="6.5" width="5" height="1" rx="0.5"></rect>
        <rect id="Rectangle-Copy-10" stroke="#5B5B5B" fill="#D8D8D8" x="6.5" y="10.5" width="5" height="1" rx="0.5"></rect>
    </g>
    <g id="step-1-落地版" stroke="none" stroke-width="1" fill="none" fill-rule="evenodd">
        <g id="Group-2-Copy-2" transform="translate(1.000000, 1.000000)" stroke="#5B5B5B" stroke-width="2">
            <rect id="Combined-Shape-Copy-3" x="1" y="1" width="14" height="14" rx="1"></rect>
        </g>
        <rect id="Rectangle-Copy-8" stroke="#5B5B5B" fill="#D8D8D8" x="6.5" y="6.5" width="5" height="1" rx="0.5"></rect>
        <rect id="Rectangle-Copy-10" stroke="#5B5B5B" fill="#D8D8D8" x="6.5" y="10.5" width="5" height="1" rx="0.5"></rect>
    </g>
    <g id="step-1-落地版" stroke="none" stroke-width="1" fill="none" fill-rule="evenodd">
        <g id="Group-2-Copy-2" transform="translate(1.000000, 1.000000)" stroke="#5B5B5B" stroke-width="2">
            <rect id="Combined-Shape-Copy-3" x="1" y="1" width="14" height="14" rx="1"></rect>
        </g>
        <rect id="Rectangle-Copy-8" stroke="#5B5B5B" fill="#D8D8D8" x="6.5" y="6.5" width="5" height="1" rx="0.5"></rect>
        <rect id="Rectangle-Copy-10" stroke="#5B5B5B" fill="#D8D8D8" x="6.5" y="10.5" width="5" height="1" rx="0.5"></rect>
    </g>
    <g id="step-1-落地版" stroke="none" stroke-width="1" fill="none" fill-rule="evenodd">
        <g id="Group-2-Copy-2" transform="translate(1.000000, 1.000000)" stroke="#5B5B5B" stroke-width="2">
            <rect id="Combined-Shape-Copy-3" x="1" y="1" width="14" height="14" rx="1"></rect>
        </g>
        <rect id="Rectangle-Copy-8" stroke="#5B5B5B" fill="#D8D8D8" x="6.5" y="6.5" width="5" height="1" rx="0.5"></rect>
        <rect id="Rectangle-Copy-10" stroke="#5B5B5B" fill="#D8D8D8" x="6.5" y="10.5" width="5" height="1" rx="0.5"></rect>
    </g>
    <g id="step-1-落地版" stroke="none" stroke-width="1" fill="none" fill-rule="evenodd">
        <g id="Group-2-Copy-2" transform="translate(1.000000, 1.000000)" stroke="#5B5B5B" stroke-width="2">
            <rect id="Combined-Shape-Copy-3" x="1" y="1" width="14" height="14" rx="1"></rect>
        </g>
        <rect id="Rectangle-Copy-8" stroke="#5B5B5B" fill="#D8D8D8" x="6.5" y="6.5" width="5" height="1" rx="0.5"></rect>
        <rect id="Rectangle-Copy-10" stroke="#5B5B5B" fill="#D8D8D8" x="6.5" y="10.5" width="5" height="1" rx="0.5"></rect>
    </g>
    <g id="step-1-落地版" stroke="none" stroke-width="1" fill="none" fill-rule="evenodd">
        <g id="Group-2-Copy-2" transform="translate(1.000000, 1.000000)" stroke="#5B5B5B" stroke-width="2">
            <rect id="Combined-Shape-Copy-3" x="1" y="1" width="14" height="14" rx="1"></rect>
        </g>
        <rect id="Rectangle-Copy-8" stroke="#5B5B5B" fill="#D8D8D8" x="6.5" y="6.5" width="5" height="1" rx="0.5"></rect>
        <rect id="Rectangle-Copy-10" stroke="#5B5B5B" fill="#D8D8D8" x="6.5" y="10.5" width="5" height="1" rx="0.5"></rect>
    </g>
    <g id="step-1-落地版" stroke="none" stroke-width="1" fill="none" fill-rule="evenodd">
        <g id="Group-2-Copy-2" transform="translate(1.000000, 1.000000)" stroke="#5B5B5B" stroke-width="2">
            <rect id="Combined-Shape-Copy-3" x="1" y="1" width="14" height="14" rx="1"></rect>
        </g>
        <rect id="Rectangle-Copy-8" stroke="#5B5B5B" fill="#D8D8D8" x="6.5" y="6.5" width="5" height="1" rx="0.5"></rect>
        <rect id="Rectangle-Copy-10" stroke="#5B5B5B" fill="#D8D8D8" x="6.5" y="10.5" width="5" height="1" rx="0.5"></rect>
    </g>
</svg>
